<?xml version="1.0" encoding="utf-8"?>
<!-- Generator: Adobe Illustrator 17.0.0, SVG Export Plug-In . SVG Version: 6.00 Build 0)  -->
<!DOCTYPE svg PUBLIC "-//W3C//DTD SVG 1.1//EN" "http://www.w3.org/Graphics/SVG/1.1/DTD/svg11.dtd">
<svg version="1.1"
	 id="Layer_1" xmlns:inkscape="http://www.inkscape.org/namespaces/inkscape" xmlns:dc="http://purl.org/dc/elements/1.1/" xmlns:cc="http://creativecommons.org/ns#" xmlns:sodipodi="http://sodipodi.sourceforge.net/DTD/sodipodi-0.dtd" xmlns:rdf="http://www.w3.org/1999/02/22-rdf-syntax-ns#" xmlns:svg="http://www.w3.org/2000/svg"
	 xmlns="http://www.w3.org/2000/svg" xmlns:xlink="http://www.w3.org/1999/xlink" x="0px" y="0px" width="30px" height="51.212px"
	 viewBox="302.904 336.28 30 51.212" enable-background="new 302.904 336.28 30 51.212" xml:space="preserve">
<path fill="#a0a0a0" d="M307.29,387.492c1.121,0,2.242-0.429,3.1-1.286l21.23-21.221c0.824-0.82,1.285-1.938,1.285-3.1
	c0-1.162-0.461-2.276-1.285-3.1l-21.23-21.221c-0.855-0.855-1.977-1.285-3.1-1.285c-1.118,0-2.241,0.425-3.1,1.285
	c-1.714,1.714-1.714,4.49,0,6.199l18.13,18.121l-18.13,18.121c-1.714,1.71-1.714,4.485,0,6.199
	C305.047,387.063,306.168,387.492,307.29,387.492L307.29,387.492z"/>
</svg>
